<mxfile host="app.diagrams.net" modified="2024-06-19T19:54:08.462Z" agent="Mozilla/5.0 (Windows NT 10.0; Win64; x64) AppleWebKit/537.36 (KHTML, like Gecko) Chrome/126.0.0.0 Safari/537.36" version="24.5.5" etag="r3dGLQ5n1mHoLzKXBlt0" type="github">
  <diagram name="Page-1" id="vZR_3l1T8xo6MbTMYSGH">
    <mxGraphModel>
      <root>
        <mxCell id="0" />
        <mxCell id="1" parent="0" />
      </root>
    </mxGraphModel>
  </diagram>
</mxfile>
